<svg width="32" height="32" viewBox="0 0 32 32" fill="none" xmlns="http://www.w3.org/2000/svg">
<path d="M27.1732 11.4267L25.5332 13.8933C26.3241 15.4708 26.7113 17.2198 26.6601 18.9836C26.6089 20.7475 26.1209 22.4711 25.2398 24H6.75982C5.61471 22.0135 5.14022 19.7108 5.40668 17.4334C5.67314 15.156 6.66637 13.0251 8.23913 11.3566C9.81189 9.68803 11.8804 8.57071 14.1381 8.17025C16.3958 7.76979 18.7225 8.1075 20.7732 9.13332L23.2398 7.49332C20.7285 5.88294 17.7496 5.16133 14.7797 5.4439C11.8098 5.72648 9.02042 6.99692 6.85781 9.052C4.69521 11.1071 3.28431 13.8281 2.85078 16.7797C2.41725 19.7314 2.98616 22.7432 4.46649 25.3333C4.69917 25.7364 5.03327 26.0715 5.4356 26.3054C5.83792 26.5393 6.29445 26.6638 6.75982 26.6667H25.2265C25.6964 26.6685 26.1584 26.5462 26.5658 26.312C26.9732 26.0779 27.3115 25.7403 27.5465 25.3333C28.775 23.2052 29.3915 20.779 29.328 18.3226C29.2645 15.8662 28.5233 13.4751 27.1865 11.4133L27.1732 11.4267ZM14.1198 20.5467C14.3675 20.7946 14.6616 20.9913 14.9853 21.1255C15.309 21.2597 15.656 21.3288 16.0065 21.3288C16.3569 21.3288 16.7039 21.2597 17.0277 21.1255C17.3514 20.9913 17.6455 20.7946 17.8932 20.5467L25.4398 9.22666L14.1198 16.7733C13.8719 17.021 13.6752 17.3151 13.541 17.6388C13.4068 17.9625 13.3377 18.3095 13.3377 18.66C13.3377 19.0104 13.4068 19.3574 13.541 19.6812C13.6752 20.0049 13.8719 20.299 14.1198 20.5467Z" fill="#919191"/>
</svg>
