<svg width="34" height="34" viewBox="0 0 34 34" fill="none" xmlns="http://www.w3.org/2000/svg">
<path d="M31.1666 0H2.83336C1.24664 0 0 1.24664 0 2.83336V31.1667C0 32.7534 1.24664 34 2.83336 34H15.8667H22.6667H31.1667C32.7534 34 34 32.7534 34 31.1666V2.83336C34 1.24664 32.7534 0 31.1666 0ZM17 32.8666V21.5334H12.4666V17H17V13.0334C17 9.80336 19.4934 7.08336 22.6666 6.8H27.7666V11.3334H23.2333C22.2699 11.3334 21.5333 12.07 21.5333 13.0334V17H27.2V21.5334H21.5334V32.8667H17V32.8666ZM32.8666 31.1666C32.8666 32.13 32.13 32.8666 31.1666 32.8666H22.6666V22.6666H28.3333V15.8666H22.6666V13.0333C22.6666 12.6933 22.8933 12.4666 23.2333 12.4666H28.9V5.66664H22.61C18.8134 6.00664 15.8666 9.23664 15.8666 13.0333V15.8666H11.3333V22.6666H15.8666V32.8666H2.83336C1.87 32.8666 1.13336 32.13 1.13336 31.1666V2.83336C1.13336 1.87 1.87 1.13336 2.83336 1.13336H31.1667C32.1301 1.13336 32.8667 1.87 32.8667 2.83336V31.1666H32.8666Z" fill="#C4C4C4"/>
</svg>
