<svg width="228" height="44" viewBox="0 0 228 44" fill="none" xmlns="http://www.w3.org/2000/svg">
<path d="M17.44 21.14H6.94L4.87 26H0.85L10.3 5H14.14L23.62 26H19.54L17.44 21.14ZM16.15 18.08L12.19 8.9L8.26 18.08H16.15ZM45.0407 22.73V26H29.2907V5H44.6207V8.27H33.1907V13.73H43.3307V16.94H33.1907V22.73H45.0407ZM66.1284 26L61.8384 19.85C61.6584 19.87 61.3884 19.88 61.0284 19.88H56.2884V26H52.3884V5H61.0284C62.8484 5 64.4284 5.3 65.7684 5.9C67.1284 6.5 68.1684 7.36 68.8884 8.48C69.6084 9.6 69.9684 10.93 69.9684 12.47C69.9684 14.05 69.5784 15.41 68.7984 16.55C68.0384 17.69 66.9384 18.54 65.4984 19.1L70.3284 26H66.1284ZM66.0384 12.47C66.0384 11.13 65.5984 10.1 64.7184 9.38C63.8384 8.66 62.5484 8.3 60.8484 8.3H56.2884V16.67H60.8484C62.5484 16.67 63.8384 16.31 64.7184 15.59C65.5984 14.85 66.0384 13.81 66.0384 12.47ZM87.1417 26.3C85.0017 26.3 83.0717 25.84 81.3517 24.92C79.6317 23.98 78.2817 22.69 77.3017 21.05C76.3217 19.39 75.8317 17.54 75.8317 15.5C75.8317 13.46 76.3217 11.62 77.3017 9.98C78.2817 8.32 79.6317 7.03 81.3517 6.11C83.0717 5.17 85.0017 4.7 87.1417 4.7C89.2817 4.7 91.2117 5.17 92.9317 6.11C94.6517 7.03 96.0017 8.31 96.9817 9.95C97.9617 11.59 98.4517 13.44 98.4517 15.5C98.4517 17.56 97.9617 19.41 96.9817 21.05C96.0017 22.69 94.6517 23.98 92.9317 24.92C91.2117 25.84 89.2817 26.3 87.1417 26.3ZM87.1417 22.88C88.5417 22.88 89.8017 22.57 90.9217 21.95C92.0417 21.31 92.9217 20.43 93.5617 19.31C94.2017 18.17 94.5217 16.9 94.5217 15.5C94.5217 14.1 94.2017 12.84 93.5617 11.72C92.9217 10.58 92.0417 9.7 90.9217 9.08C89.8017 8.44 88.5417 8.12 87.1417 8.12C85.7417 8.12 84.4817 8.44 83.3617 9.08C82.2417 9.7 81.3617 10.58 80.7217 11.72C80.0817 12.84 79.7617 14.1 79.7617 15.5C79.7617 16.9 80.0817 18.17 80.7217 19.31C81.3617 20.43 82.2417 21.31 83.3617 21.95C84.4817 22.57 85.7417 22.88 87.1417 22.88ZM114.676 26.12C112.076 26.12 110.046 25.36 108.586 23.84C107.146 22.32 106.426 20.09 106.426 17.15V5H107.446V17.12C107.446 19.8 108.066 21.82 109.306 23.18C110.546 24.52 112.336 25.19 114.676 25.19C116.996 25.19 118.776 24.52 120.016 23.18C121.276 21.82 121.906 19.8 121.906 17.12V5H122.896V17.15C122.896 20.09 122.176 22.32 120.736 23.84C119.296 25.36 117.276 26.12 114.676 26.12ZM151.665 5V26H150.825L135.915 6.86V26H134.895V5H135.735L150.645 24.14V5H151.665ZM163.858 5H164.878V26H163.858V5ZM185.759 26.12C183.719 26.12 181.869 25.66 180.209 24.74C178.569 23.82 177.279 22.55 176.339 20.93C175.399 19.31 174.929 17.5 174.929 15.5C174.929 13.5 175.399 11.69 176.339 10.07C177.279 8.45 178.569 7.18 180.209 6.26C181.869 5.34 183.719 4.88 185.759 4.88C187.799 4.88 189.649 5.34 191.309 6.26C192.969 7.18 194.269 8.45 195.209 10.07C196.149 11.69 196.619 13.5 196.619 15.5C196.619 17.5 196.149 19.31 195.209 20.93C194.269 22.55 192.969 23.82 191.309 24.74C189.649 25.66 187.799 26.12 185.759 26.12ZM185.759 25.19C187.599 25.19 189.269 24.77 190.769 23.93C192.269 23.09 193.449 21.93 194.309 20.45C195.169 18.97 195.599 17.32 195.599 15.5C195.599 13.68 195.169 12.03 194.309 10.55C193.449 9.07 192.269 7.91 190.769 7.07C189.269 6.23 187.599 5.81 185.759 5.81C183.919 5.81 182.249 6.23 180.749 7.07C179.269 7.91 178.099 9.07 177.239 10.55C176.379 12.03 175.949 13.68 175.949 15.5C175.949 17.32 176.379 18.97 177.239 20.45C178.099 21.93 179.269 23.09 180.749 23.93C182.249 24.77 183.919 25.19 185.759 25.19ZM223.436 5V26H222.596L207.686 6.86V26H206.666V5H207.506L222.416 24.14V5H223.436Z" fill="white"/>
<path d="M1.6 36.8C1.6 38.9 3.04 41.132 5.944 41.132C8.86 41.132 10.3 38.9 10.3 36.8C10.3 34.7 8.86 32.468 5.944 32.468C3.04 32.468 1.6 34.7 1.6 36.8ZM9.82 36.8C9.82 38.696 8.548 40.676 5.944 40.676C3.352 40.676 2.08 38.696 2.08 36.8C2.08 34.904 3.352 32.924 5.944 32.924C8.548 32.924 9.82 34.904 9.82 36.8ZM18.3423 43.64V41.132C20.2863 41.096 21.7863 40.004 21.7863 38.12C21.7863 36.236 20.2863 35.144 18.3423 35.108V32.6H17.8863V35.108C15.9423 35.144 14.4543 36.236 14.4543 38.12C14.4543 40.004 15.9423 41.096 17.8863 41.132V43.64H18.3423ZM14.9103 38.12C14.9103 36.488 16.1703 35.552 17.8863 35.516V40.724C16.1703 40.688 14.9103 39.752 14.9103 38.12ZM18.3423 35.516C20.0703 35.552 21.3183 36.488 21.3183 38.12C21.3183 39.752 20.0703 40.688 18.3423 40.724V35.516ZM26.7198 41L30.9318 35.96V41H31.3878V35.24H30.9678L26.7678 40.28V35.24H26.3118V41H26.7198ZM42.0674 42.632V40.568H41.2394V35.24H40.7834V40.568H36.7874V35.24H36.3314V41H41.6234V42.632H42.0674ZM46.8409 41L51.0529 35.96V41H51.5089V35.24H51.0889L46.8889 40.28V35.24H46.4329V41H46.8409ZM60.8805 40.076V37.448C60.8805 35.984 60.0045 35.108 58.4805 35.108C57.5685 35.108 56.8365 35.312 56.3925 35.468V35.912C56.8605 35.732 57.5805 35.54 58.4445 35.54C59.7405 35.54 60.4245 36.284 60.4245 37.4V37.928C59.8245 37.736 59.1405 37.616 58.4565 37.616C57.2205 37.616 55.9485 38.084 55.9485 39.452C55.9485 40.604 56.9325 41.132 57.9285 41.132C58.9485 41.132 59.8485 40.7 60.4245 39.932V40.088C60.4245 40.784 60.8685 41.024 61.3365 41.024C61.5285 41.024 61.7205 40.988 61.9005 40.928V40.544C61.7565 40.592 61.6005 40.628 61.4565 40.628C61.1445 40.628 60.8805 40.496 60.8805 40.076ZM56.4165 39.44C56.4165 38.372 57.4725 38.012 58.5045 38.012C59.1765 38.012 59.8605 38.144 60.4245 38.324V39.368C59.9085 40.256 58.9725 40.724 58.0125 40.724C57.1965 40.724 56.4165 40.316 56.4165 39.44ZM67.5881 35.672H70.6001V41H71.0561V35.24H67.1441C67.0361 38.684 66.5921 40.676 65.5121 40.676C65.3801 40.676 65.2361 40.664 65.0921 40.604V40.976C65.2961 41.048 65.4641 41.072 65.6321 41.072C66.9761 41.072 67.4441 39.02 67.5881 35.672ZM78.5553 41C79.8873 41 80.7273 40.244 80.7273 39.2C80.7273 38.156 79.8873 37.4 78.5553 37.4H76.4553V35.24H75.9993V41H78.5553ZM76.4553 37.82H78.5073C79.5873 37.82 80.2593 38.36 80.2593 39.2C80.2593 40.028 79.5993 40.58 78.5073 40.58H76.4553V37.82ZM85.5491 41V38.336H89.6171V41H90.0731V35.24H89.6171V37.904H85.5491V35.24H85.0931V41H85.5491ZM97.5749 41C98.9069 41 99.7469 40.244 99.7469 39.2C99.7469 38.156 98.9069 37.4 97.5749 37.4H95.4749V35.24H95.0189V41H97.5749ZM95.4749 37.82H97.5269C98.6069 37.82 99.2789 38.36 99.2789 39.2C99.2789 40.028 98.6189 40.58 97.5269 40.58H95.4749V37.82ZM101.367 41V35.24H100.911V41H101.367ZM110.384 33.776V33.332C109.88 33.728 109.412 33.86 108.848 33.86C108.284 33.86 107.816 33.728 107.312 33.332V33.776C107.768 34.148 108.284 34.268 108.848 34.268C109.412 34.268 109.928 34.148 110.384 33.776ZM106.724 41L110.936 35.96V41H111.392V35.24H110.972L106.772 40.28V35.24H106.316V41H106.724ZM122.26 42.632V41H128.008V42.632H128.464V40.58H127.636V35.24H123.652C123.652 37.616 123.304 39.104 122.56 40.58H121.816V42.632H122.26ZM124.084 35.66H127.168V40.58H123.04C123.7 39.2 124.06 37.808 124.084 35.66ZM133.232 41L137.444 35.96V41H137.9V35.24H137.48L133.28 40.28V35.24H132.824V41H133.232ZM144.463 35.672H147.475V41H147.931V35.24H144.019C143.911 38.684 143.467 40.676 142.387 40.676C142.255 40.676 142.111 40.664 141.967 40.604V40.976C142.171 41.048 142.339 41.072 142.507 41.072C143.851 41.072 144.319 39.02 144.463 35.672ZM154.494 35.672H157.506V41H157.962V35.24H154.05C153.942 38.684 153.498 40.676 152.418 40.676C152.286 40.676 152.142 40.664 151.998 40.604V40.976C152.202 41.048 152.37 41.072 152.538 41.072C153.882 41.072 154.35 39.02 154.494 35.672ZM162.498 38.12C162.498 40.22 163.998 41.132 165.642 41.132C166.35 41.132 167.07 40.976 167.574 40.7V40.244C167.082 40.532 166.386 40.7 165.702 40.7C164.322 40.7 163.026 40.016 162.954 38.348H167.91C168.174 36.932 167.466 35.108 165.318 35.108C163.902 35.108 162.498 36.164 162.498 38.12ZM167.514 37.94H162.954C163.002 36.38 164.118 35.54 165.342 35.54C167.094 35.54 167.622 36.956 167.514 37.94ZM172.853 36.608V35.24H172.433V43.64H172.889V39.68C173.333 40.472 174.221 41.132 175.409 41.132C177.041 41.132 178.277 39.932 178.277 38.12C178.277 36.308 177.041 35.108 175.409 35.108C174.221 35.108 173.333 35.768 172.853 36.608ZM177.821 38.12C177.821 39.74 176.753 40.7 175.361 40.7C174.173 40.7 173.237 39.92 172.889 38.96V37.28C173.237 36.32 174.173 35.54 175.361 35.54C176.753 35.54 177.821 36.512 177.821 38.12ZM192.064 41C193.156 41 193.888 40.472 193.888 39.476C193.888 38.624 193.36 38.192 192.724 38.06C193.324 37.88 193.672 37.388 193.672 36.74C193.672 35.792 193 35.24 191.92 35.24H188.968V41H192.064ZM189.424 38.276H192.052C192.784 38.276 193.432 38.564 193.432 39.452C193.432 40.28 192.808 40.592 192.004 40.592H189.424V38.276ZM189.424 35.648H191.872C192.7 35.648 193.216 36.044 193.216 36.776C193.216 37.484 192.76 37.88 191.908 37.88H189.424V35.648ZM204.864 32.6V41H205.344V37.868H207.54C209.412 37.868 211.056 37.28 211.056 35.228C211.056 33.188 209.412 32.6 207.54 32.6H204.864ZM210.576 35.228C210.576 36.956 209.184 37.412 207.564 37.412H205.344V33.056H207.564C209.196 33.056 210.576 33.512 210.576 35.228ZM219.82 41.432V40.304C222.508 40.268 224.284 39.032 224.284 36.8C224.284 34.568 222.508 33.332 219.82 33.296V32.168H219.34V33.296C216.652 33.332 214.876 34.568 214.876 36.8C214.876 39.032 216.652 40.268 219.34 40.304V41.432H219.82ZM215.356 36.8C215.356 34.88 216.844 33.764 219.34 33.728V39.872C216.844 39.836 215.356 38.72 215.356 36.8ZM219.82 33.728C222.328 33.764 223.804 34.88 223.804 36.8C223.804 38.72 222.328 39.836 219.82 39.872V33.728Z" fill="white"/>
</svg>
