<svg width="26" height="26" viewBox="0 0 26 26" fill="none" xmlns="http://www.w3.org/2000/svg">
<g clip-path="url(#clip0)">
<path d="M21.6385 5.38066C20.462 6.19966 18.8435 5.91368 18.0245 4.74368C17.1989 3.56716 17.485 1.94866 18.6614 1.1232C19.838 0.29768 21.4565 0.58366 22.282 1.76018C23.101 2.93664 22.8149 4.55514 21.6385 5.38066Z" fill="#919191"/>
<path d="M20.8455 19.4467L23.4 7.14868H26L23.4065 19.8302C22.9255 23.0022 20.1955 25.3487 16.9845 25.3487H7.79999V22.7487H16.991C18.915 22.7486 20.553 21.3446 20.8455 19.4467Z" fill="#919191"/>
<path d="M7.50117 17.5487H13.8451L15.1776 12.2186C13.1301 13.3757 10.9137 14.2271 8.48263 13.8047V11.0422C10.6016 11.4387 12.9546 10.6847 14.5796 9.42368L16.7181 7.75966C17.0106 7.53218 17.3551 7.36966 17.7126 7.26564C18.1221 7.14864 18.5641 7.11616 18.9996 7.18764L19.0321 7.19416C20.6245 7.47368 21.6906 8.98816 21.4111 10.5806L19.6495 18.2766C19.2985 20.1161 17.693 21.4486 15.821 21.4486H6.91605L1.95007 25.3486L7.24792e-05 23.3986L7.50117 17.5487Z" fill="#919191"/>
</g>
<defs>
<clipPath id="clip0">
<rect width="26" height="26" fill="white" transform="matrix(-1 0 0 1 26 0)"/>
</clipPath>
</defs>
</svg>
