<svg width="32" height="32" viewBox="0 0 32 32" fill="none" xmlns="http://www.w3.org/2000/svg">
<g clip-path="url(#clip0)">
<path d="M5.38893 9.61386C5.04974 9.61386 4.77368 9.88986 4.77368 10.2291C4.77368 10.5684 5.04968 10.8444 5.38893 10.8444C5.72818 10.8444 6.00418 10.5684 6.00418 10.2291C6.00418 9.88986 5.72812 9.61386 5.38893 9.61386Z" fill="#919191"/>
<path d="M5.38893 4.84012C2.4175 4.84012 0 7.25761 0 10.229C0 11.701 0.802936 13.6242 2.38643 15.9453C3.51931 17.6058 4.63755 18.8615 4.68455 18.9142C4.8638 19.1147 5.11999 19.2293 5.38893 19.2293C5.65786 19.2293 5.91405 19.1147 6.0933 18.9142C6.14036 18.8615 7.25855 17.6058 8.39142 15.9453C9.97498 13.6243 10.7779 11.701 10.7779 10.229C10.7779 7.25761 8.36036 4.84012 5.38893 4.84012ZM5.38893 12.7336C4.00793 12.7336 2.88437 11.61 2.88437 10.229C2.88437 8.84799 4.00793 7.72449 5.38893 7.72449C6.76999 7.72449 7.89348 8.84805 7.89348 10.229C7.89355 11.61 6.76992 12.7336 5.38893 12.7336Z" fill="#919191"/>
<path d="M22.276 25.2704H19.9251C18.2596 25.2704 16.9045 23.9154 16.9045 22.2499C16.9045 19.5425 14.7019 17.3399 11.9946 17.3399H9.72375C9.20194 18.0835 8.69457 18.7374 8.29663 19.2293H11.9947C13.6602 19.2293 15.0152 20.5843 15.0152 22.2499C15.0152 24.9572 17.2179 27.1598 19.9252 27.1598H23.7031C23.3051 26.6679 22.7977 26.0139 22.276 25.2704Z" fill="#919191"/>
<path d="M26.6111 17.5443C26.2718 17.5443 25.9958 17.8203 25.9958 18.1596C25.9958 18.4988 26.2718 18.7748 26.6111 18.7748C26.9503 18.7748 27.2263 18.4988 27.2263 18.1596C27.2263 17.8203 26.9503 17.5443 26.6111 17.5443Z" fill="#919191"/>
<path d="M26.611 12.7707C23.6396 12.7707 21.2222 15.1882 21.2222 18.1595C21.2222 19.6316 22.0251 21.5548 23.6086 23.8759C24.7415 25.5363 25.8597 26.7921 25.9067 26.8447C26.086 27.0452 26.3421 27.1598 26.6111 27.1598C26.8801 27.1598 27.1362 27.0452 27.3155 26.8447C27.3626 26.7921 28.4808 25.5364 29.6136 23.8759C31.1971 21.5549 32 19.6316 32 18.1595C32 15.1881 29.5825 12.7707 26.611 12.7707ZM26.611 20.6641C25.23 20.6641 24.1065 19.5406 24.1065 18.1596C24.1065 16.7785 25.23 15.655 26.611 15.655C27.992 15.655 29.1156 16.7786 29.1156 18.1596C29.1156 19.5406 27.9921 20.6641 26.611 20.6641Z" fill="#919191"/>
</g>
<defs>
<clipPath id="clip0">
<rect width="32" height="32" fill="white"/>
</clipPath>
</defs>
</svg>
